<svg width="262" height="46" viewBox="0 0 262 46" xmlns="http://www.w3.org/2000/svg" class="Logo_H3WJ"><title>Quickwit</title><g fill="none" fill-rule="evenodd"><path d="m80.295 37.281 3.255-4.48c-2.127-.387-3.416-.935-4.383-1.87 2.836-2.159 4.512-5.318 4.512-9.057 0-6.898-5.802-11.958-13.892-11.958s-13.925 5.06-13.925 11.958c0 6.898 5.834 11.958 13.925 11.958 1.192 0 2.353-.097 3.449-.322 1.386 1.708 4.287 3.191 7.059 3.771ZM69.787 15.395c4.255 0 7.446 2.514 7.446 6.479 0 3.965-3.191 6.479-7.446 6.479s-7.446-2.514-7.446-6.479c0-3.965 3.191-6.479 7.446-6.479ZM99.57 33.8c7.929 0 12.28-4.029 12.28-10.669V10.302h-6.317v12.217c0 3.706-1.934 5.801-5.963 5.801-4.03 0-5.963-2.095-5.963-5.801V10.302h-6.318v12.829c0 6.64 4.352 10.669 12.28 10.669ZM116.492 33.445h6.318V10.302h-6.318zM126.871 21.874c0 6.898 5.769 11.958 13.827 11.958 6.447 0 10.927-2.901 12.7-7.574l-5.77-2.579c-.902 2.707-3.255 4.674-6.93 4.674-4.125 0-7.381-2.514-7.381-6.479 0-3.965 3.256-6.479 7.381-6.479 3.675 0 6.028 1.966 6.93 4.674l5.77-2.579c-1.773-4.673-6.253-7.574-12.7-7.574-8.058 0-13.827 5.06-13.827 11.958ZM163.293 10.302h-6.317v23.143h6.317v-5.769l4.126-3.707 8.026 9.476h8.026l-11.507-13.537 10.701-9.606h-8.606l-10.766 9.767zM199.877 10.302l-4.706 15.246-5.06-15.246h-6.576l7.801 23.143h6.769l4.706-15.149 4.673 15.149h6.801l7.801-23.143h-6.382l-5.093 15.246-4.674-15.246zM225.309 33.445h6.318V10.302h-6.318zM261.474 15.653v-5.351h-25.786v5.351h9.734v17.792h6.317V15.653z" fill="#FFF"></path><path fill="#16D18E" d="m10.181 5.202 14.54 10.564 3.762-5.176L13.942.025zM1.656 21.3l17.36-4.652-1.655-6.18L0 15.12z"></path><path fill="#16D18E" d="m8.81 38.008 7.311-16.419-5.845-2.603-7.31 16.42zM26.277 43.044l-8.16-16.014-5.7 2.905 8.16 16.014zM41.119 32.504l-17.58-3.737-1.33 6.259 17.58 3.737zM42.3 14.337 28.332 25.648l4.026 4.973 13.968-11.312zM28.512 20.265h6.398V2.292h-6.398z"></path></g></svg>